<svg width="10" height="10" viewBox="0 0 10 10" fill="none" xmlns="http://www.w3.org/2000/svg">
<path d="M5.03033 1.46967L5.56066 0.93934L5.56066 0.93934L5.03033 1.46967ZM5.03033 2.53033L5.56066 3.06066V3.06066L5.03033 2.53033ZM3.96967 1.46967L3.43934 0.93934L3.43934 0.93934L3.96967 1.46967ZM0.96967 4.46967L0.43934 3.93934L0.439339 3.93934L0.96967 4.46967ZM0.806909 4.71291L1.49971 5.0002L1.49993 4.99965L0.806909 4.71291ZM0.806909 5.28709L1.49993 5.00035L1.4997 4.9998L0.806909 5.28709ZM0.96967 5.53033L0.439339 6.06066L0.43942 6.06074L0.96967 5.53033ZM0.96972 5.53038L1.50005 5.00005L1.49997 4.99997L0.96972 5.53038ZM3.96967 8.53033L3.43934 9.06066L3.43934 9.06066L3.96967 8.53033ZM5.03033 8.53033L5.56066 9.06066L5.56066 9.06066L5.03033 8.53033ZM5.03033 7.46967L5.56066 6.93934L5.56066 6.93934L5.03033 7.46967ZM3.31066 5.75V5C3.00731 5 2.73384 5.18273 2.61775 5.46299C2.50166 5.74324 2.56583 6.06583 2.78033 6.28033L3.31066 5.75ZM3.31066 4.25L2.78033 3.71967C2.56583 3.93417 2.50166 4.25676 2.61775 4.53701C2.73384 4.81727 3.00731 5 3.31066 5V4.25ZM4.5 2V2L5.56066 3.06066C6.14645 2.47487 6.14645 1.52513 5.56066 0.93934L4.5 2ZM4.5 2H4.5L5.56066 0.93934C4.97487 0.353553 4.02513 0.353553 3.43934 0.93934L4.5 2ZM1.5 5L4.5 2L3.43934 0.93934L0.43934 3.93934L1.5 5ZM1.49993 4.99965L1.5 5L0.439339 3.93934C0.296503 4.08218 0.187516 4.24822 0.113886 4.42617L1.49993 4.99965ZM1.5 5L1.4997 5.0002L0.114113 4.42563C0.040342 4.60353 0 4.798 0 5H1.5ZM1.4997 4.9998L1.5 5H0C0 5.202 0.0403419 5.39647 0.114113 5.57438L1.4997 4.9998ZM1.5 5L1.49993 5.00035L0.113886 5.57383C0.187516 5.75179 0.296503 5.91782 0.439339 6.06066L1.5 5ZM1.49997 4.99997L1.49992 4.99992L0.43942 6.06074L0.439469 6.06079L1.49997 4.99997ZM4.5 8L1.50005 5.00005L0.439389 6.06071L3.43934 9.06066L4.5 8ZM4.5 8H4.5L3.43934 9.06066C4.02513 9.64645 4.97487 9.64645 5.56066 9.06066L4.5 8ZM4.5 8V8L5.56066 9.06066C6.14645 8.47487 6.14645 7.52513 5.56066 6.93934L4.5 8ZM2.78033 6.28033L4.5 8L5.56066 6.93934L3.84099 5.21967L2.78033 6.28033ZM8.5 5H3.31066V6.5H8.5V5ZM8.5 5V6.5C9.32843 6.5 10 5.82843 10 5H8.5ZM8.5 5H10C10 4.17157 9.32843 3.5 8.5 3.5V5ZM3.31066 5H8.5V3.5H3.31066V5ZM4.5 2L2.78033 3.71967L3.84099 4.78033L5.56066 3.06066L4.5 2Z" fill="#2C2543"/>
</svg>
