<svg width="10" height="10" viewBox="0 0 10 10" fill="none" xmlns="http://www.w3.org/2000/svg">
<path d="M4.96967 1.46967L4.43934 0.93934L4.43934 0.93934L4.96967 1.46967ZM4.96967 2.53033L4.43934 3.06066V3.06066L4.96967 2.53033ZM6.03033 1.46967L6.56066 0.93934L6.56066 0.93934L6.03033 1.46967ZM9.03033 4.46967L9.56066 3.93934L9.56066 3.93934L9.03033 4.46967ZM9.19309 4.71291L8.50029 5.0002L8.50007 4.99965L9.19309 4.71291ZM9.19309 5.28709L8.50007 5.00035L8.5003 4.9998L9.19309 5.28709ZM9.03033 5.53033L9.56066 6.06066L9.56058 6.06074L9.03033 5.53033ZM9.03028 5.53038L8.49995 5.00005L8.50003 4.99997L9.03028 5.53038ZM6.03033 8.53033L6.56066 9.06066L6.56066 9.06066L6.03033 8.53033ZM4.96967 8.53033L4.43934 9.06066L4.43934 9.06066L4.96967 8.53033ZM4.96967 7.46967L4.43934 6.93934L4.43934 6.93934L4.96967 7.46967ZM6.68934 5.75V5C6.99269 5 7.26616 5.18273 7.38225 5.46299C7.49834 5.74324 7.43417 6.06583 7.21967 6.28033L6.68934 5.75ZM6.68934 4.25L7.21967 3.71967C7.43417 3.93417 7.49834 4.25676 7.38225 4.53701C7.26616 4.81727 6.99269 5 6.68934 5V4.25ZM5.5 2V2L4.43934 3.06066C3.85355 2.47487 3.85355 1.52513 4.43934 0.93934L5.5 2ZM5.5 2H5.5L4.43934 0.93934C5.02513 0.353553 5.97487 0.353553 6.56066 0.93934L5.5 2ZM8.5 5L5.5 2L6.56066 0.93934L9.56066 3.93934L8.5 5ZM8.50007 4.99965L8.5 5L9.56066 3.93934C9.7035 4.08218 9.81248 4.24822 9.88611 4.42617L8.50007 4.99965ZM8.5 5L8.5003 5.0002L9.88589 4.42563C9.95966 4.60353 10 4.798 10 5H8.5ZM8.5003 4.9998L8.5 5H10C10 5.202 9.95966 5.39647 9.88589 5.57438L8.5003 4.9998ZM8.5 5L8.50007 5.00035L9.88611 5.57383C9.81248 5.75179 9.7035 5.91782 9.56066 6.06066L8.5 5ZM8.50003 4.99997L8.50008 4.99992L9.56058 6.06074L9.56053 6.06079L8.50003 4.99997ZM5.5 8L8.49995 5.00005L9.56061 6.06071L6.56066 9.06066L5.5 8ZM5.5 8H5.5L6.56066 9.06066C5.97487 9.64645 5.02513 9.64645 4.43934 9.06066L5.5 8ZM5.5 8V8L4.43934 9.06066C3.85355 8.47487 3.85355 7.52513 4.43934 6.93934L5.5 8ZM7.21967 6.28033L5.5 8L4.43934 6.93934L6.15901 5.21967L7.21967 6.28033ZM1.5 5H6.68934V6.5H1.5V5ZM1.5 5V6.5C0.671574 6.5 0 5.82843 0 5H1.5ZM1.5 5H0C0 4.17157 0.671574 3.5 1.5 3.5V5ZM6.68934 5H1.5V3.5H6.68934V5ZM5.5 2L7.21967 3.71967L6.15901 4.78033L4.43934 3.06066L5.5 2Z" fill="#2C2543"/>
</svg>