<svg width="135" height="154" viewBox="0 0 135 154" fill="none" xmlns="http://www.w3.org/2000/svg">
<path fill-rule="evenodd" clip-rule="evenodd" d="M101.857 99.1997C100.821 95.1869 99.8685 93.4855 98.0285 92.0908C96.3074 90.7862 93.795 89.6906 90.1291 88.8902C86.3108 88.2234 86.2026 86.2413 85.2452 83.0555C84.9659 82.0977 83.5819 81.8429 82.9846 82.5332C82.9004 82.4424 82.8126 82.3593 82.7217 82.2841C82.803 81.8274 82.1372 80.5182 82.1594 80.0813C82.3916 75.5209 80.8982 73.2308 77.1708 72.3795C76.3602 72.1943 70.8542 72.0853 70.0638 72.3035C66.6085 73.2578 63.2069 76.2874 63.7275 79.937C62.6429 81.3527 61.5813 82.2169 59.908 82.673C56.184 83.1453 52.4604 83.5653 48.7355 83.9248C41.444 85.067 34.6077 88.9219 29.9352 94.544C29.5043 95.063 29.3797 95.7674 29.7601 96.3209C29.4622 97.5955 27.785 100.687 29.1046 101.561C26.9345 106.745 21.9415 116.766 21.9321 119.628C21.8928 131.654 23.1934 147.308 35.0744 153.963C35.5501 154.43 35.6182 154.947 35.8241 155.642C36.3465 157.831 38.2435 159.396 40.3198 159.268C50.5482 159.495 60.4552 158.249 70.6838 158.188C75.1946 158.162 80.6193 158.834 84.5379 159.282C88.4564 159.73 92.412 159.334 96.1724 158.188C96.4895 158.687 97.1306 158.977 97.7809 158.834C101.679 158.061 104.832 155.661 107.577 153.038C108.416 151.514 111.693 147.17 110.391 145.658C111.571 140.673 111.51 135.316 109.412 130.569C109.709 129.698 109.167 128.742 109.412 127.843C109.589 127.193 110.043 126.924 110.271 126.28C110.592 125.374 110.243 124.158 109.881 123.234C109.733 122.773 110.154 122.277 110.271 121.807C110.826 119.589 109.555 119.784 108.639 118.301C108.653 118.297 108.891 117.238 108.89 117.243C109.03 116.488 108.679 115.519 108.372 114.889C108.165 114.462 107.721 114.195 107.281 114.244C107.725 112.739 108.286 111.486 108.89 110.035C109.958 107.479 111.309 105.03 112.843 102.716C113.471 101.769 112.627 100.671 111.611 100.606C108.322 100.397 105.069 99.9244 101.857 99.1997Z" fill="white"/>
<path fill-rule="evenodd" clip-rule="evenodd" d="M92.2575 118.535C90.9419 118.019 89.5254 117.734 88.1017 117.624C88.8682 117.49 89.637 117.36 90.4119 117.294C90.9526 117.248 91.454 117.252 91.8604 117.662C92.1315 117.935 92.2587 118.286 92.4369 118.609C92.3787 118.583 92.3181 118.558 92.2575 118.535ZM106.378 113.717C104.223 113.826 102.066 114.338 100.117 115.265C99.32 115.645 98.5975 116.193 98.3859 117.096C98.279 117.556 98.3051 118.032 98.3621 118.498C98.405 118.85 98.4157 119.3 98.7223 119.539C98.7745 119.579 98.8304 119.61 98.8886 119.633C98.1697 119.957 97.485 120.346 96.8766 120.748C96.3205 121.114 95.7489 121.679 95.4922 122.317C95.4708 122.245 95.4495 122.177 95.4281 122.113C94.9907 120.821 94.3169 119.763 93.2557 119.052C93.4435 118.968 93.573 118.768 93.5124 118.493C93.2605 117.343 92.1967 116.343 90.9954 116.414C89.6799 116.491 88.2669 116.97 87.0772 117.574C86.6436 117.565 86.2109 117.571 85.7832 117.59C85.7095 117.592 85.7131 117.692 85.7832 117.7C86.1302 117.744 86.4772 117.793 86.8242 117.85C87.6489 117.981 88.4713 118.149 89.2757 118.356C90.2408 118.606 91.239 118.856 92.141 119.292C93.8902 120.139 94.9729 122.352 94.7507 124.277C94.7138 124.593 94.5914 125.547 94.1528 125.449C93.7822 125.366 93.6348 124.593 93.5053 124.307C93.1583 123.547 92.5332 123.051 91.7833 122.715C90.9027 122.319 89.9603 122.052 89.0475 121.741C88.5307 121.564 88.0138 121.387 87.4956 121.212C86.9656 121.03 86.4617 120.78 85.8973 120.907C85.5562 120.984 85.517 121.39 85.7083 121.623C85.9995 121.977 86.432 122.082 86.8515 122.228C87.4053 122.42 87.9579 122.613 88.5105 122.805C89.3648 123.102 90.2598 123.352 91.0927 123.716L91.0667 123.775C90.9989 123.756 90.9192 123.824 90.9324 123.907C91.0572 124.675 91.2307 125.563 91.0381 126.332C90.8861 126.942 90.35 127.618 89.6537 127.439C89.7631 127.339 89.8035 127.167 89.7298 127.008C89.454 126.419 85.8414 124.094 85.5194 124.958C85.5087 124.988 85.5418 125.011 85.5681 125.006C85.8426 124.949 86.3025 125.417 86.5222 125.565C86.8395 125.779 87.1616 125.988 87.4754 126.208C87.8189 126.447 88.154 126.699 88.4808 126.959C88.7375 127.163 88.9312 127.376 89.2258 127.479C89.0714 127.553 88.9489 127.689 88.8967 127.864C88.7636 128.318 88.5069 128.704 88.0613 128.905C87.5943 129.114 87.0678 128.982 86.5758 129.033C85.9056 129.101 85.3209 129.419 84.8325 129.874C83.8069 130.831 83.2923 132.516 81.858 132.969C81.0011 133.238 80.0504 133.068 79.1829 132.946C78.2144 132.81 77.2708 132.702 76.2951 132.844C75.3611 132.981 74.4781 133.303 73.6249 133.698C72.8251 134.067 71.9409 134.485 71.2315 135.036C71.0853 134.586 70.9379 134.14 70.8261 133.681C70.5624 132.595 70.4198 131.488 70.3852 130.372C70.3532 129.31 70.4127 128.243 70.504 127.185C70.5493 126.656 70.6206 126.13 70.6658 125.602C70.6776 125.469 70.7014 125.327 70.7193 125.184C71.9861 124.437 73.3169 123.865 74.6586 123.276C74.6623 123.275 74.6659 123.273 74.6694 123.272C74.711 123.253 74.7514 123.235 74.793 123.217C74.7918 123.215 74.7907 123.212 74.7883 123.21C74.9416 123.116 75.0485 122.991 75.1127 122.851C77.0462 121.57 78.6624 119.822 79.8674 117.782C80.3725 116.927 80.8585 116.04 81.5193 115.291C82.2228 114.492 83.0582 114.017 84.0921 113.77C85.3007 113.481 86.5461 113.307 87.7844 113.209C88.4606 113.155 89.2163 113.072 89.9532 113.076C90.4666 113.079 90.9691 113.123 91.4304 113.25C92.1137 113.438 92.513 113.957 92.942 114.481C93.352 114.985 93.7596 115.489 94.1422 116.014C94.5046 116.512 94.8469 117.026 95.144 117.565C95.3223 117.888 95.4875 118.22 95.6265 118.563C95.6752 118.684 95.7394 118.822 95.7691 118.948C95.7988 119.075 95.7442 119.209 95.8868 119.209C95.2985 119.217 95.3045 120.156 95.8892 120.122C98.178 119.989 94.8992 115.525 94.4202 114.903C93.7416 114.022 93.0418 112.873 91.9556 112.463C91.9402 112.457 91.9235 112.451 91.9081 112.447C92.2242 112.147 92.4738 111.789 92.7126 111.424C92.9586 111.049 93.252 110.619 93.333 110.174C93.3841 109.891 93.0311 109.729 92.8635 109.977C92.6199 110.339 92.5023 110.797 92.3205 111.195C92.1351 111.599 91.9093 111.98 91.731 112.387C91.302 112.255 90.8385 112.195 90.3668 112.175C90.9621 111.37 91.9793 109.817 92.1018 109.617C92.6651 108.694 93.201 107.742 93.7132 106.788C94.2669 105.755 94.7412 104.68 95.2712 103.635C95.5719 103.043 95.8749 102.445 96.2088 101.871C96.3241 101.674 96.4477 101.477 96.5879 101.297C96.6153 101.262 96.6497 101.232 96.6818 101.199C96.7186 101.179 96.7567 101.156 96.7781 101.144C96.9705 101.034 97.0383 100.778 97.1737 100.615C97.3901 100.352 97.6444 100.322 97.97 100.318C98.6639 100.311 99.3604 100.338 100.053 100.357C101.072 100.386 102.089 100.426 103.106 100.479C103.414 100.496 103.721 100.513 104.028 100.532C105.508 100.62 106.986 100.735 108.461 100.876C109.766 101.001 111.071 101.204 112.377 101.301C110.608 105.498 108.648 109.619 106.428 113.596C106.405 113.636 106.388 113.676 106.378 113.717ZM96.5665 124.529C96.2813 124.66 96.0044 124.822 95.7466 125.007C95.7893 124.719 95.8 124.415 95.7881 124.11C96.0009 124.338 96.273 124.468 96.5665 124.529ZM108.741 117.309C108.721 117.312 108.702 117.322 108.693 117.343C108.298 118.156 108.463 119.064 109.108 119.702C109.445 120.034 110.181 120.409 110.157 120.955C110.137 121.397 109.655 121.767 109.45 122.132C109.258 122.471 109.187 122.844 109.34 123.212C109.537 123.684 110.084 123.871 110.272 124.334C110.51 124.922 110.124 125.631 109.853 126.142C109.601 126.616 109.275 127.09 109.059 127.591C107.61 128.34 106.314 129.489 105.199 130.656C103.978 131.932 102.932 133.434 100.993 133.396C100.8 133.393 100.652 133.495 100.564 133.636C100.025 133.661 99.484 133.672 98.9445 133.674C97.9962 133.679 97.0478 133.669 96.1007 133.639C96.0341 133.41 96.0829 133.099 96.0792 132.906C96.0674 132.282 96.0615 131.66 96.0353 131.037C96.0282 130.864 96.0211 130.689 96.0139 130.516C96.355 131.132 97.0205 131.412 97.7787 131.37C98.998 131.298 100.224 131.099 101.432 130.92C102.068 130.826 102.702 130.719 103.336 130.605C103.856 130.512 104.59 130.536 104.954 130.119C105.04 130.022 105.044 129.844 104.91 129.779C104.55 129.602 104.323 129.7 103.927 129.776C103.445 129.87 102.961 129.959 102.476 130.042C101.546 130.204 100.613 130.353 99.6777 130.485C99.1453 130.56 98.6117 130.633 98.0782 130.692C97.6123 130.741 97.0871 130.809 96.7115 130.459C95.9545 129.751 96.3788 128.565 96.8577 127.851C96.8672 127.836 96.8672 127.823 96.8636 127.811C97.3152 127.706 97.7656 127.582 98.2148 127.496C99.0788 127.329 99.9487 127.189 100.82 127.065C102.609 126.809 104.411 126.641 106.21 126.471C106.656 126.428 106.661 125.728 106.21 125.77C103.625 126.006 101.028 126.23 98.4775 126.728C97.8381 126.851 97.2034 126.991 96.5725 127.149C96.2742 127.223 95.9545 127.338 95.642 127.341C95.623 127.341 95.6038 127.341 95.5849 127.34C94.9729 127.321 94.8838 126.798 95.2201 126.362C95.2617 126.308 95.3045 126.255 95.3485 126.204C95.9426 125.496 96.6829 125.024 97.4458 124.535C98.3004 124.418 99.1525 124.16 99.9891 123.97C102.054 123.499 104.12 123.029 106.186 122.56C106.592 122.468 106.419 121.846 106.014 121.937C104.446 122.292 102.877 122.647 101.308 123.002L99.0122 123.522C98.5535 123.625 97.9806 123.833 97.4411 123.908C97.175 123.945 96.9171 123.949 96.6842 123.895C95.9319 123.717 95.8939 122.778 96.2183 122.22C96.582 121.593 97.2689 121.201 97.8785 120.846C98.935 120.23 100.059 119.787 101.157 119.277C101.352 119.234 101.547 119.191 101.742 119.148C102.876 118.899 104.171 118.777 105.238 118.32C105.558 118.184 105.383 117.681 105.067 117.688C104.239 117.706 103.372 118 102.563 118.175C101.687 118.365 100.81 118.554 99.9344 118.742C99.8465 118.761 99.326 118.928 99.2475 118.891C99.1976 118.867 99.1798 118.694 99.1632 118.58C99.1096 118.205 99.0705 117.81 99.1287 117.434C99.257 116.59 99.9617 116.193 100.675 115.869C102.262 115.149 104.003 114.698 105.736 114.517C106.135 114.475 106.535 114.449 106.936 114.436C107.408 114.422 107.797 114.339 108.036 114.803C108.411 115.534 108.618 116.475 108.741 117.309ZM106.537 143.825C106.191 142.63 106.285 141.354 106.048 140.134C105.925 139.506 105.759 138.882 105.576 138.267C105.429 137.771 105.184 137.244 105.156 136.726C105.154 136.692 105.195 136.672 105.223 136.688C105.711 136.967 106.086 137.571 106.364 138.044C106.697 138.611 106.952 139.205 107.157 139.829C107.566 141.072 107.902 142.572 107.374 143.825C107.218 144.198 106.666 144.273 106.537 143.825ZM95.8452 127.993C96.1375 127.965 96.4299 127.909 96.7222 127.844C96.3954 128.162 96.0936 128.545 95.9259 128.97C95.8998 128.644 95.8665 128.318 95.8226 127.994C95.8297 127.994 95.8381 127.994 95.8452 127.993ZM93.0356 152.874C92.5201 152.514 92.1445 152.012 91.7072 151.568C91.2773 151.132 91.9494 150.461 92.3795 150.897C92.7525 151.275 93.0764 151.748 93.5154 152.054C93.7267 152.201 93.8245 152.467 93.686 152.703C93.5636 152.912 93.2463 153.021 93.0356 152.874ZM90.1607 139.061C91.1018 138.654 92.0273 138.212 93.0122 137.919C93.6008 137.744 93.85 138.661 93.265 138.835C92.3579 139.104 91.5071 139.507 90.6406 139.881C90.0842 140.121 89.6006 139.303 90.1607 139.061ZM80.2223 138.776C79.9921 138.209 80.9122 137.965 81.139 138.524C81.4001 139.168 81.6993 139.795 81.9604 140.439C82.1903 141.006 81.2704 141.25 81.0437 140.691C80.7826 140.047 80.4832 139.42 80.2223 138.776ZM70.4128 150.105C70.2595 150.309 70.0039 150.419 69.7624 150.275C69.5601 150.154 69.4366 149.832 69.5918 149.625C70.045 149.022 70.5041 148.426 71.0351 147.888C71.4657 147.452 72.1376 148.124 71.7074 148.56C71.2331 149.04 70.8175 149.566 70.4128 150.105ZM69.0101 86.5422C69.4465 86.84 69.8288 87.2017 70.2016 87.5739C70.635 88.0066 69.9626 88.6781 69.5292 88.2454C69.2151 87.9317 68.8983 87.6133 68.5303 87.3623C68.3177 87.2173 68.2222 86.9474 68.3597 86.7126C68.483 86.5022 68.798 86.3976 69.0101 86.5422ZM83.2815 101.826C83.0348 102.32 82.8127 102.803 82.7987 103.364C82.7837 103.975 81.833 103.976 81.8481 103.364C81.8663 102.63 82.1372 101.994 82.4606 101.347C82.7341 100.799 83.5539 101.281 83.2815 101.826ZM88.5178 89.5511C89.0289 89.2107 89.5043 90.0338 88.9977 90.3712C88.587 90.6446 88.1762 90.9183 87.7655 91.1918C87.2546 91.5321 86.7792 90.7091 87.2856 90.3717C87.6964 90.0981 88.1071 89.8246 88.5178 89.5511ZM65.806 111.013C65.7188 111.616 64.8028 111.358 64.8892 110.76C65.0229 109.836 65.186 108.925 65.4369 108.025C65.6011 107.436 66.518 107.688 66.3536 108.277C66.1028 109.177 65.9396 110.089 65.806 111.013ZM62.4727 121.892C61.8608 121.879 61.8607 120.93 62.4727 120.943C63.0265 120.954 63.5709 121.1 64.1051 121.233C64.6993 121.381 64.4459 122.297 63.8523 122.149C63.4007 122.036 62.941 121.902 62.4727 121.892ZM61.2423 143.808C61.0321 143.911 60.8164 144.003 60.6039 144.1C60.1783 144.294 59.753 144.489 59.3278 144.684C58.442 145.09 57.5566 145.498 56.6721 145.907C54.9014 146.725 53.1171 147.515 51.3421 148.325C49.5321 149.151 47.7268 149.988 45.9238 150.83C45.0744 151.226 44.2185 151.607 43.3643 151.993C42.6339 152.323 41.7311 152.9 40.9293 152.954C40.8881 152.957 40.8743 152.905 40.8978 152.878C41.2007 152.534 41.6839 152.334 42.082 152.11C42.4887 151.881 42.903 151.666 43.3153 151.448C44.175 150.993 45.0358 150.542 45.9037 150.103C47.64 149.225 49.3795 148.354 51.1194 147.483C52.8939 146.596 54.6662 145.702 56.4562 144.846C57.299 144.443 58.1426 144.041 58.9867 143.64C59.444 143.423 59.9016 143.206 60.3591 142.99C60.5567 142.897 60.7523 142.796 60.9543 142.712C61.2228 142.601 61.4268 142.624 61.7037 142.556C62.1553 142.444 62.3508 143.018 62.0042 143.268C61.7187 143.473 61.5685 143.649 61.2423 143.808ZM54.8955 153.547C54.7979 153.31 55.0022 153.022 55.2275 152.963C55.4974 152.892 55.7138 153.056 55.8123 153.295C56.073 153.928 56.4442 154.509 56.922 155C57.3492 155.439 56.6772 156.11 56.2498 155.672C55.651 155.056 55.2208 154.337 54.8955 153.547ZM50.2262 138.302C49.7928 137.869 50.4652 137.198 50.8985 137.631L52.1306 138.861C52.564 139.294 51.8915 139.966 51.4584 139.533L50.2262 138.302ZM37.5854 136.295C36.6996 136.555 35.6664 136.793 35.0625 137.548C35.033 137.585 34.9835 137.538 35.0012 137.501C35.7743 135.9 37.9916 135.338 39.5268 134.777C40.6126 134.38 41.7267 134.051 42.8502 133.757C42.7379 132.477 43.0476 131.105 43.1553 129.83C43.2702 128.47 43.3637 127.106 43.4117 125.742C43.4608 124.35 43.4727 122.948 43.4268 121.556C43.3812 120.169 43.2009 118.798 43.122 117.416C43.1144 117.282 43.3007 117.276 43.3409 117.386C43.8074 118.669 44.0067 120.09 44.1586 121.443C44.315 122.837 44.3669 124.227 44.347 125.628C44.3263 127.07 44.2424 128.507 44.1272 129.944C44.0727 130.625 44.0093 131.305 43.9496 131.986C43.9039 132.505 43.8828 133.02 43.7768 133.523C44.4544 133.357 45.1336 133.2 45.8106 133.047C47.9694 132.56 50.1372 132.108 52.287 131.582C53.3423 131.324 54.3825 131.015 55.433 130.74C56.4222 130.481 57.4663 130.167 58.4819 130.052C58.8444 130.011 58.8905 130.506 58.6505 130.674C57.8251 131.253 56.7288 131.656 55.7754 131.98C54.8185 132.306 53.8238 132.54 52.8431 132.781C50.7977 133.283 48.733 133.694 46.6714 134.122C44.6127 134.549 42.55 134.974 40.5144 135.501C39.5341 135.755 38.5572 136.01 37.5854 136.295ZM32.7313 110.886C32.202 111.197 31.7241 110.375 32.2515 110.066C32.9416 109.661 33.6771 109.357 34.4185 109.061C34.9875 108.833 35.2323 109.752 34.6713 109.977C34.005 110.243 33.3514 110.523 32.7313 110.886ZM30.8146 146.172C30.2839 146.479 29.8057 145.658 30.3349 145.352C31.0781 144.922 31.892 144.634 32.6622 144.258C33.2102 143.99 33.6915 144.809 33.142 145.078C32.3719 145.455 31.5579 145.742 30.8146 146.172ZM29.9526 126.142C30.4657 126.629 31.1506 126.858 31.7964 127.114C32.3594 127.337 32.1125 128.255 31.5436 128.03C30.7391 127.711 29.9196 127.42 29.2803 126.814C28.8356 126.392 29.5091 125.721 29.9526 126.142ZM35.6296 98.94C36.1937 99.1611 35.9467 100.079 35.3768 99.856C34.7449 99.6083 34.0922 99.4198 33.4602 99.1722C32.8962 98.9511 33.1432 98.033 33.713 98.2562C34.345 98.5039 34.9976 98.6924 35.6296 98.94ZM45.6444 88.1354C46.2439 88.0345 46.4991 88.9499 45.8972 89.0514C45.1504 89.1773 44.4151 89.3247 43.7068 89.5984C43.1348 89.8195 42.8894 88.9008 43.454 88.6826C44.1624 88.4089 44.8978 88.2614 45.6444 88.1354ZM48.9535 114.442C48.4039 114.172 48.8861 113.353 49.4332 113.622C50.0098 113.905 50.6072 114.124 51.2364 114.258C51.8354 114.385 51.5803 115.301 50.9836 115.174C50.2756 115.023 49.6019 114.761 48.9535 114.442ZM52.0788 99.6239C52.6706 99.4619 52.9209 100.378 52.3316 100.54C51.2947 100.824 50.2272 100.971 49.1827 101.224C48.5875 101.368 48.3356 100.451 48.93 100.308C49.9744 100.055 51.0421 99.9079 52.0788 99.6239ZM65.3371 94.9738C65.9389 95.085 65.6824 96.0003 65.0844 95.8897C64.4478 95.7721 63.8027 95.7702 63.1572 95.7698C62.5445 95.7696 62.5456 94.8198 63.1572 94.8201C63.8905 94.8204 64.6143 94.8402 65.3371 94.9738ZM108.577 99.9358C107.024 99.7874 105.469 99.6686 103.911 99.5796C103.838 99.5759 103.767 99.5713 103.694 99.5676C103.686 99.5511 103.675 99.5356 103.665 99.5189C103.156 98.7734 102.782 98.0279 102.457 97.1849C102.147 96.3823 101.847 95.5549 101.369 94.8307C100.824 94.0056 100.088 93.36 99.2821 92.8005C98.7931 93.129 98.3392 93.5136 97.924 93.9213C97.487 94.3503 96.8147 93.6788 97.2517 93.2497C97.6207 92.8874 98.0146 92.5527 98.4309 92.2503C97.9502 91.9585 97.4597 91.6843 96.9813 91.4114C95.1879 90.3894 93.352 89.4442 91.4779 88.5801C90.6068 88.1775 89.725 87.8201 88.8373 87.458C88.3595 87.2634 87.8878 87.0128 87.4101 86.7874C87.4445 86.4501 87.3435 86.0725 87.0844 85.8505C86.8931 85.6879 86.7446 85.6273 86.5164 85.5123C86.4653 85.4944 86.4344 85.4837 86.4201 85.4777C86.4308 85.4801 86.4617 85.4896 86.5127 85.5062C86.634 85.5622 86.6436 85.5454 86.5414 85.4576C86.5354 85.2654 86.1562 84.8593 86.0696 84.6611C85.7677 83.9807 85.6738 83.2612 85.2282 82.6415C84.6138 81.7879 83.5823 81.4651 82.6208 81.7546C82.5211 80.7277 82.4949 79.6558 82.1075 78.7391C82.0968 78.7143 82.0623 78.7035 82.0469 78.7308C81.6428 79.4183 81.6084 80.184 81.5775 80.977C81.5478 81.7214 81.5762 82.4824 81.6737 83.222C81.612 83.2695 81.549 83.3148 81.4836 83.3586C81.177 83.5604 80.8466 83.7159 80.4996 83.8312C79.8389 84.0495 79.1461 84.1445 78.4532 84.1777C76.6647 84.2632 74.8215 84.0828 73.0627 83.7765C71.2837 83.4666 68.5564 83.0012 66.9735 82.112C65.9288 81.5256 64.9651 80.8096 63.9882 80.1163C64.3424 78.9766 64.4327 77.7514 64.0762 76.7885C64.0334 76.6734 63.8528 76.652 63.8183 76.7885C63.5949 77.7074 63.5296 78.6311 63.2325 79.5393C63.2277 79.5524 63.223 79.5667 63.2182 79.5797C63.1255 79.5169 63.0328 79.455 62.9401 79.3933C62.7262 79.252 62.4351 79.3578 62.3067 79.5595C60.2543 82.7899 57.0042 82.9751 53.5911 83.5522C49.8559 84.1837 46.102 84.8651 42.5107 86.101C39.0763 87.2836 35.794 89.0051 33.1938 91.5766C32.6052 92.1588 32.0547 92.7791 31.5352 93.4267C32.0378 93.49 32.5364 93.5886 33.0285 93.743C33.6111 93.9258 33.3607 94.8425 32.7757 94.6588C32.1433 94.4603 31.5038 94.3621 30.8578 94.3132C29.091 96.7278 27.7134 99.4656 26.5222 102.16C24.2373 107.327 22.7501 112.83 22.0657 118.432C22.4414 118.207 22.824 117.993 23.216 117.793C23.7608 117.517 24.2412 118.336 23.6959 118.614C23.0903 118.921 22.502 119.26 21.9321 119.628C21.6831 122.08 21.5866 124.548 21.6451 127.012C21.7841 132.887 22.578 138.933 24.3736 144.538C25.2542 147.289 26.4212 150.017 28.1598 152.342C28.9465 153.395 29.8402 154.345 30.8931 155.136C31.4029 155.521 31.9424 155.864 32.5117 156.154C33.2449 156.529 34.2003 156.652 34.8326 157.183C35.0405 157.358 35.201 157.588 35.3222 157.848C35.2521 158.342 35.2437 158.837 35.3792 159.331C35.422 159.485 35.5385 159.611 35.6822 159.672C35.6846 159.714 35.6846 159.756 35.6846 159.796C35.6846 159.815 35.7131 159.82 35.7167 159.801C35.7227 159.764 35.7286 159.727 35.7345 159.689C35.7809 159.705 35.8296 159.712 35.8795 159.712C37.6847 159.719 39.4921 159.675 41.2996 159.614C41.1598 159.186 41.0084 158.762 40.8631 158.334C40.6657 157.753 41.5842 157.506 41.7798 158.082C41.9499 158.582 42.1277 159.077 42.2858 159.579C44.2225 159.507 46.1587 159.421 48.0913 159.357C52.2019 159.22 56.3113 159.175 60.423 159.089C66.8083 158.954 73.2401 158.677 79.6352 158.947C79.8564 158.479 80.1039 158.02 80.3386 157.558C80.6155 157.012 81.4355 157.493 81.1595 158.037C80.9964 158.359 80.8274 158.676 80.6668 158.997C81.962 159.064 83.256 159.153 84.5471 159.274C86.7504 159.48 88.9324 159.847 91.1333 160.075C93.3709 160.308 95.56 160.266 97.7799 159.897C98.1792 159.831 98.4145 159.59 98.5119 159.29C98.5153 159.289 98.5178 159.287 98.5201 159.283C98.6342 159.15 98.7413 159.04 98.8517 158.944C98.9837 158.858 99.1263 158.786 99.2939 158.722C99.6064 158.603 99.932 158.531 100.262 158.482C100.626 158.427 100.994 158.423 101.358 158.378C101.665 158.338 101.964 158.28 102.264 158.209C102.802 158.081 103.313 157.913 103.822 157.691C104.265 157.498 104.665 157.22 105.043 156.917C105.825 156.346 106.502 155.617 107.094 154.86C107.439 154.417 107.763 153.957 108.058 153.479C108.572 152.65 109.009 151.79 109.451 150.922C109.611 150.665 109.758 150.401 109.892 150.132C109.028 149.878 108.155 149.671 107.239 149.656C106.627 149.646 106.627 148.696 107.239 148.706C108.29 148.723 109.283 148.968 110.271 149.26C110.319 149.133 110.365 149.004 110.408 148.874C110.525 148.602 110.623 148.323 110.703 148.04C110.751 147.912 110.799 147.784 110.846 147.656C110.953 147.212 111.06 146.767 111.168 146.321C111.383 145.609 111.553 144.886 111.678 144.153C111.783 143.671 111.863 143.186 111.918 142.694C112.084 141.504 112.22 140.315 112.229 139.111C112.215 138.369 112.168 137.629 112.087 136.891C112.052 136.39 111.994 135.892 111.916 135.397C111.813 134.66 111.712 133.932 111.542 133.205C111.415 132.714 111.288 132.222 111.161 131.73C110.844 130.706 110.469 129.701 110.038 128.72C110.014 128.658 109.894 128.523 109.822 128.521C109.767 128.52 109.691 128.57 109.716 128.637C109.718 128.642 109.721 128.65 109.723 128.656C109.698 128.6 109.674 128.543 109.649 128.487C109.628 128.435 109.545 128.33 109.481 128.332C109.477 128.332 109.473 128.332 109.469 128.333C109.485 128.321 109.501 128.305 109.516 128.288C109.943 127.783 110.22 127.119 110.525 126.535C110.778 126.053 111.017 125.545 111.086 125C111.147 124.522 111.065 124.05 110.764 123.663C110.422 123.223 109.778 123.016 110.135 122.38C110.542 121.656 111.14 121.028 110.544 120.205C110.241 119.786 109.761 119.556 109.405 119.191C108.995 118.77 108.8 118.206 108.81 117.63C108.835 117.644 108.869 117.637 108.881 117.601C109.225 116.561 108.976 115.419 108.623 114.407C108.43 113.857 108.022 113.706 107.548 113.679C109.602 109.672 111.523 105.601 113.236 101.436C113.293 101.3 113.349 101.163 113.405 101.027C113.488 100.822 113.312 100.551 113.109 100.506C111.628 100.181 110.086 100.078 108.577 99.9358Z" fill="black"/>
<path fill-rule="evenodd" clip-rule="evenodd" d="M95.3563 38.4474C95.3164 37.0277 93.2495 36.4383 92.6523 37.8443C92.6152 37.8819 92.5749 37.9181 92.5371 37.9506C92.7241 37.7904 92.3332 38.0554 92.2696 38.0882C92.2152 38.1162 92.1596 38.1415 92.1041 38.1676C91.72 34.571 90.4161 30.6938 87.0468 28.8885C82.3475 26.6119 76.9174 26.1676 71.7619 26.3937C69.1502 26.5485 66.1343 26.9657 63.814 25.6458C63.091 25.2345 62.5114 24.5872 61.6944 24.333C59.1152 23.636 57.9454 26.2818 58.2967 28.4576C57.1966 28.4663 56.1053 29.0747 55.6306 30.0765C55.3518 30.6694 55.3566 31.3092 55.1162 31.9042C54.3786 33.4131 53.3232 34.4978 53.9199 36.3273C52.8704 37.5203 53.4688 39.3264 54.3156 40.4686C54.7338 41.0627 55.2319 41.6331 55.5382 42.298C55.8356 42.9347 55.3867 43.6898 55.1369 44.2934C53.2902 48.6681 53.3957 53.486 54.3894 58.0491C52.3953 58.9136 51.7968 61.6157 53.0972 63.3171C53.5446 63.9185 54.0904 64.1417 54.7094 64.5117C55.4928 64.9425 54.853 66.6677 55.1039 67.5009C55.4447 69.535 57.2986 70.7876 59.1316 69.4667C60.2948 69.2909 61.2331 72.6719 62.0778 73.5206C62.5982 74.2044 63.1759 74.8184 63.8041 75.3851C65.6758 80.1963 75.2668 82.636 80.0086 82.3575C84.9743 81.8381 88.3242 77.6251 91.1136 73.8861C92.5459 71.8938 93.4775 69.664 93.8163 67.232C94.1567 64.7878 94.0078 62.3391 93.7777 59.8919C93.2944 54.6924 92.5319 47.2016 92.0396 41.9459C93.8188 41.7995 95.4103 40.2862 95.3563 38.4474V38.4474Z" fill="white"/>
<path fill-rule="evenodd" clip-rule="evenodd" d="M56.569 35.3213C56.5674 35.3287 56.5699 35.3343 56.5715 35.3421C56.5719 35.3399 56.5722 35.3387 56.5728 35.3359C56.5714 35.33 56.5703 35.3261 56.569 35.3213" fill="#4F66AF"/>
<path fill-rule="evenodd" clip-rule="evenodd" d="M56.5685 35.3969C56.562 35.39 56.5527 35.3849 56.5435 35.378C56.5432 35.3783 56.5431 35.3785 56.543 35.3788C56.5517 35.3845 56.56 35.391 56.5685 35.3969" fill="#4F66AF"/>
<path fill-rule="evenodd" clip-rule="evenodd" d="M95.0733 39.1193C95.6578 38.6342 96.5784 39.0808 96.3804 39.8794C96.165 40.7492 95.2318 41.3435 94.4615 41.7009C93.6686 42.0685 92.8963 42.1394 92.0313 42.0993L92.0206 42.0969V42.0969C92.2608 43.0589 92.397 44.0589 92.5807 45.0267C92.8138 46.2545 93.0432 47.4829 93.2691 48.7119C93.4877 49.8999 93.7639 51.0893 93.9319 52.2832C94.1012 53.4883 94.2638 54.6943 94.4302 55.8998C94.7078 57.9132 94.9319 59.9359 95.1682 61.955L95.2809 62.9108C95.5175 64.9338 95.7081 66.9592 95.2595 68.9724C94.8392 70.8591 93.8923 72.619 92.794 74.194C91.7184 75.7362 90.5168 77.219 89.1978 78.5604C86.6536 81.1475 83.5163 83.2195 79.8376 83.6038C78.2536 83.7693 76.5618 83.5852 75.0726 83.01L74.9737 82.9714C73.4663 82.3768 71.6203 81.3588 71.228 79.6882C70.9871 78.6634 72.0442 77.8633 72.971 78.3496C73.4004 78.5749 73.7233 78.8324 74.0758 79.1553L74.1383 79.2129C74.4264 79.4802 74.5373 79.5623 74.8697 79.7714C75.5514 80.1998 76.0624 80.4026 76.8368 80.5973C78.2645 80.9561 79.8054 80.8994 81.2547 80.475C84.3319 79.5742 86.7191 77.2235 88.7642 74.8665C89.8746 73.5866 90.9286 72.244 91.7414 70.7522C92.5943 69.1871 92.9881 67.5439 92.9644 65.7631C92.9377 63.7537 92.6597 61.7365 92.4773 59.7367C92.2914 57.6979 92.1196 55.6598 91.9682 53.6181C91.8264 51.7035 91.8127 49.7802 91.7631 47.8596L91.7533 47.4996C91.7242 46.48 91.704 45.46 91.6808 44.4402C91.6579 43.4234 91.5773 42.3936 91.6821 41.381C91.6896 41.3073 91.7891 41.2887 91.8133 41.3632C91.8751 41.5529 91.9292 41.7456 91.9803 41.9394C91.9882 41.9334 91.9969 41.9281 92.0076 41.9244C92.6855 41.6917 93.3097 41.2272 93.8184 40.7261C94.3037 40.2481 94.5572 39.5477 95.0733 39.1193ZM57.9867 24.873C58.4125 23.1259 60.3287 22.7356 61.7456 23.577C62.4271 23.9816 62.9728 24.5651 63.6094 25.0289C64.2423 25.49 64.9418 25.8603 65.6799 26.1218C67.1463 26.6413 68.6931 26.8302 70.2428 26.837C74.0148 26.8535 77.7096 25.7945 81.4871 25.9126C84.41 26.004 87.5124 26.867 89.6326 28.9779C90.7747 30.115 91.5107 31.5769 91.9055 33.129C92.09 33.8544 92.2275 34.5973 92.336 35.3386L92.3625 35.5238C92.4232 35.957 92.5207 36.4157 92.5297 36.8535C92.5379 37.2467 92.4383 37.6582 92.3844 38.0474C92.2707 38.8677 90.9987 38.7743 90.816 38.0474C90.3998 36.3923 90.574 34.6841 90.0654 33.0347C89.6144 31.5721 88.7403 30.2932 87.4739 29.4186C82.131 25.7287 75.2794 28.8187 69.3927 28.5316C67.9539 28.4615 66.494 28.2393 65.1368 27.7444C64.437 27.4891 63.748 27.1778 63.1135 26.7863C62.5322 26.4278 62.0285 25.9774 61.4904 25.5629L61.253 25.3826C60.8841 25.1053 60.256 24.6718 59.8838 25.0386C59.7219 25.1983 59.7121 25.5593 59.715 25.8349L59.7169 25.9595C59.7338 27.1299 59.9725 28.2981 59.5341 29.4288C59.3341 29.9445 58.7783 30.2697 58.2497 29.9776L58.2224 29.962C57.1042 29.2974 55.6352 30.6328 56.4941 31.7379L56.5208 31.7713C57.0041 32.358 56.7465 33.3913 55.8815 33.3887L55.8504 33.3882C54.3093 33.3401 53.6255 35.2642 54.9539 36.1049L54.9947 36.13C56.0732 36.7748 55.1272 38.3249 54.0219 37.7927C54.1156 37.8378 53.9528 37.8372 53.8596 37.9621C53.7701 38.082 53.7634 38.1858 53.7847 38.3373C53.8492 38.7963 54.2533 39.1831 54.5806 39.4735C55.324 40.1332 56.2456 40.5887 57.1953 40.8661C60.9993 41.9771 64.9019 40.6181 68.6082 39.7973C72.4722 38.9417 76.8364 38.5971 80.2062 41.025C80.2463 41.0538 80.2112 41.118 80.1669 41.0923C77.7485 39.6893 74.7866 39.8138 72.1431 40.389C68.6766 41.1434 65.2404 42.5475 61.6901 42.9174C62.6868 44.6752 63.1039 46.7513 62.8377 48.7619C62.6544 50.1459 62.103 51.3464 61.4518 52.563L61.3276 52.7948C60.747 53.8868 60.2972 54.9184 60.29 56.1835C60.283 57.4404 58.4126 57.7054 58.0956 56.4803C57.3758 53.6981 59.998 51.5066 61.0679 49.2123C61.9824 47.251 62.0106 44.9643 61.2706 42.9562C60.4356 43.0232 59.5941 43.0302 58.7442 42.9545C58.0142 42.8893 57.2631 42.7579 56.5311 42.5499L56.2382 43.7798C55.8502 45.4181 55.4907 47.0553 55.3818 48.7569C55.3016 50.0073 55.3058 51.2638 55.4279 52.5111C55.5334 53.5884 55.7561 54.6273 55.9827 55.6791C56.1772 55.9353 56.2765 56.3274 56.2219 56.6397C57.4839 57.0028 58.4766 57.9977 58.8393 59.3154C58.8614 59.3956 58.7489 59.4407 58.7069 59.3712C57.8464 57.9449 55.6305 57.42 54.2288 58.3623C52.8902 59.262 52.3622 61.0784 53.1199 62.5163C53.5185 63.2724 54.1094 63.8037 54.8714 64.1696L55.0246 64.2415C55.4238 64.4302 55.7904 64.636 56.0472 65.0151C56.3803 65.5068 56.3915 66.0266 56.36 66.5885L56.3464 66.8163C56.3254 67.1929 56.3206 67.5807 56.4329 67.943L56.4584 68.0235C56.488 68.1139 56.5192 68.1936 56.5733 68.2799C56.5894 68.3056 56.7411 68.4542 56.7905 68.508L56.8528 68.5267V68.5267L56.9224 68.5296V68.5296C56.9997 68.5308 57.1012 68.4973 57.0679 68.5205L57.0769 68.5153C57.1062 68.4971 57.1332 68.4778 57.1559 68.4607L57.1991 68.427C57.2999 68.2813 57.4264 68.161 57.5815 68.0692L57.7297 68.0033V68.0033C58.1146 67.5973 58.7741 67.8106 59.0501 68.2151C59.2487 68.506 59.3555 68.8017 59.3643 69.0934C59.3953 69.0436 59.4642 69.0165 59.5081 69.0721L59.7697 69.4052C60.7707 70.683 61.7545 71.9687 62.892 73.1335C63.5186 73.7753 64.1927 74.3784 64.8973 74.9339C65.4988 75.4082 66.6399 75.8645 66.6574 76.7285C66.6628 77.0089 66.4636 77.2075 66.2197 77.3027C65.426 77.6124 64.4453 76.5589 63.872 76.0463L63.8252 76.0049C63.1236 75.391 62.4833 74.7171 61.8924 73.9965C60.7448 72.5966 59.7852 70.9855 59.3623 69.2131C59.3424 69.5223 59.2096 69.8254 58.951 70.1114C58.6067 70.492 58.1355 70.7589 57.6322 70.8689C56.492 71.1178 55.3787 70.7079 54.7002 69.7587C54.1268 68.9562 53.958 67.8967 54.032 66.9272L54.0411 66.8109C54.0515 66.6554 54.0647 66.3701 54.105 66.2487L53.746 66.0517V66.0517C53.3058 65.8177 52.8978 65.511 52.5317 65.1738C51.0601 63.8185 50.3218 61.6158 50.9945 59.6884C51.4153 58.4827 52.2996 57.4335 53.4319 56.8882C53.2426 56.4513 53.1793 55.9324 53.1079 55.4733L53.0959 55.3973C52.9748 54.6442 52.8735 53.8815 52.8348 53.1193C52.7626 51.6958 52.8504 50.2591 53.0743 48.8521C53.438 46.5668 54.1908 44.1432 55.5707 42.2261C54.518 41.8085 53.5489 41.2038 52.801 40.3642C52.0194 39.4869 51.5211 38.2308 52.1255 37.1166C52.2795 36.8326 52.4802 36.5939 52.7109 36.4043C52.3109 35.6497 52.1815 34.7578 52.4283 33.9054C52.7233 32.8863 53.5241 32.0915 54.4916 31.7204C54.2566 30.7548 54.4487 29.7162 55.1666 28.9115C55.8786 28.1132 56.9844 27.8225 58.0079 28.005C58.0634 26.978 57.7398 25.8858 57.9867 24.873ZM55.1162 60.9287C56.0545 60.4699 57.1666 60.5428 58.1039 60.9776L58.1674 61.0077C59.1907 61.5034 60.546 62.6617 60.2207 63.8935C60.0304 64.6139 59.2292 64.8599 58.6079 64.5489C58.0889 64.2891 57.9706 63.8245 57.7102 63.3578C57.5261 63.0278 57.2985 62.7698 57.0313 62.5044C56.4678 61.9454 55.835 61.5301 55.1162 61.1978C55.0126 61.1498 55.0161 60.9777 55.1162 60.9287ZM78.7595 36.0293C78.6716 35.9892 78.7354 35.8516 78.8239 35.8767C81.1818 36.5494 83.3802 38.0593 84.6938 40.1551C84.7739 40.283 84.7862 40.4935 84.6938 40.62L84.6513 40.6774C84.5911 40.756 84.5316 40.814 84.4184 40.8316C84.2054 40.8646 84.0204 40.8091 83.8977 40.62C82.6036 38.6224 80.9456 37.0282 78.7595 36.0293ZM94.5442 36.4248C94.744 36.0868 95.2737 36.1549 95.3791 36.5338L95.3943 36.5668C95.4513 36.696 95.4254 36.7224 95.3192 36.6493C95.5821 36.8657 95.701 37.1879 95.6207 37.5343C95.1867 39.4053 93.0653 40.7414 91.2159 40.5575C91.0546 40.5415 91.0326 40.3434 91.1789 40.2842C91.8904 39.9965 92.5219 39.5291 93.0297 38.9555C93.5232 38.398 93.7308 37.7601 93.9963 37.0868C94.0959 36.8341 94.2508 36.6521 94.4691 36.5527C94.498 36.5128 94.5232 36.4703 94.5442 36.4248ZM84.0274 35.2224L84.0402 35.2233C84.9904 35.3459 85.8124 35.8144 86.4797 36.5008C87.1224 37.1619 87.9334 38.2527 87.8639 39.2227C87.8179 39.8659 86.9026 40.2335 86.5611 39.5753C86.3573 39.1826 86.3111 38.7521 86.1683 38.3368C86.0374 37.9562 85.8565 37.5948 85.64 37.2559C85.1942 36.5576 84.5813 35.966 83.9536 35.4322C83.8801 35.3697 83.9313 35.2228 84.0274 35.2224V35.2224ZM59.6555 34.9375C59.4448 34.7371 59.6639 34.3954 59.9319 34.463C61.3453 34.8205 62.7449 35.2553 64.2144 35.2985C64.9483 35.32 65.6781 35.2622 66.4052 35.1673L66.7733 35.1185C67.3402 35.0445 67.9169 34.9865 68.4773 35.1028C68.851 35.1804 68.9239 35.6612 68.6911 35.912C67.5918 37.0968 65.4712 36.9835 64.0132 36.7838C62.4299 36.5668 60.8324 36.0575 59.6555 34.9375ZM85.1778 31.2447C85.081 31.1107 85.2438 30.8991 85.3979 30.9586C86.8024 31.5009 88.2745 32.9129 88.6614 34.3901C88.7636 34.7804 88.271 35.075 87.9818 34.7853C87.4427 34.2455 87.0622 33.6079 86.6066 33.0011C86.1525 32.3962 85.6212 31.859 85.1778 31.2447ZM62.1645 31.9044C62.0518 31.792 62.1652 31.5681 62.327 31.6253C63.2415 31.9488 64.1628 32.2288 65.1235 32.3756C66.1075 32.526 67.1007 32.4117 68.0898 32.4726C68.49 32.4972 68.7625 33.1191 68.3176 33.3126C66.3411 34.1723 63.6566 33.3927 62.1645 31.9044ZM64.6894 29.9762C64.5323 29.8601 64.6216 29.5415 64.8354 29.6304C65.7063 29.9926 66.587 30.0816 67.5215 30.0444C67.8667 30.0305 67.9394 30.5724 67.6029 30.6456C66.5699 30.8701 65.5336 30.5997 64.6894 29.9762Z" fill="black"/>
<path fill-rule="evenodd" clip-rule="evenodd" d="M80.5231 72.0552C79.7243 71.7296 79.0115 71.1866 78.4904 70.4928C78.3092 70.2516 78.2622 69.997 78.3002 69.764C78.343 69.5021 78.4981 69.2647 78.7096 69.1055C78.9218 68.9458 79.1872 68.867 79.4438 68.9071C79.6668 68.942 79.8887 69.064 80.0644 69.3169L80.1011 69.3675C80.4109 69.7863 80.8146 70.1298 81.2746 70.3513C81.718 70.5647 82.2139 70.6643 82.727 70.6064C83.7043 70.4961 84.3779 69.9681 85.0939 69.251C85.1826 69.1605 85.2714 69.0671 85.3607 68.9723C85.417 68.8863 85.4952 68.831 85.5821 68.802C85.6785 68.7698 85.7875 68.7716 85.8874 68.8065C85.9838 68.84 86.0699 68.9037 86.1276 68.9884C86.1825 69.0689 86.2136 69.1684 86.2036 69.2828C86.138 70.0259 85.7491 70.6891 85.1967 71.2098C84.5833 71.7881 83.77 72.1882 83.0044 72.3286C82.1609 72.4831 81.3014 72.3724 80.5231 72.0552V72.0552ZM83.4023 60.5915C84.2997 61.1365 85.667 62.4072 84.7017 63.7581C83.5653 64.9493 81.9292 63.5835 81.123 62.9659C80.3754 62.4871 79.5354 63.7184 80.2291 64.2773C86.0549 68.5864 88.4192 60.734 83.8562 59.9508C83.3538 59.8645 83.1672 60.423 83.4023 60.5915ZM72.9623 55.579C73.0614 54.3495 74.9358 54.0703 75.1223 55.287C75.2892 56.3768 75.0927 57.378 74.6013 58.3593C74.1317 59.2967 72.9516 58.8593 72.8624 58.0057C72.7427 56.8615 72.9006 56.3439 72.9623 55.579ZM87.2304 55.0347C87.4917 54.6928 87.869 54.4594 88.3211 54.5913C89.7335 55.0036 89.3172 57.0068 88.8212 57.9818C88.5516 58.5113 87.6804 58.6456 87.2867 58.1794C86.645 57.4191 86.3377 55.9008 87.1535 55.1519C87.1756 55.1132 87.2002 55.0741 87.2304 55.0347ZM74.5814 50.1991L74.8045 50.1601C75.4947 50.0408 76.3528 49.9262 76.8411 50.4806C77.1 50.7745 77.1892 51.3209 76.8411 51.6022C76.2288 52.0973 75.5519 51.9054 74.8182 51.9474C74.2136 51.982 73.6325 52.082 73.05 52.2483C71.7723 52.6131 70.7311 53.2792 69.6399 54.0105C69.4967 54.1064 69.3505 53.9235 69.4188 53.7897C70.0488 52.557 71.2696 51.5444 72.4924 50.9272C73.1451 50.5977 73.8593 50.3244 74.5814 50.1991ZM85.9429 49.6469L86.1137 49.6818C87.9719 50.0698 90.3863 50.845 91.2663 52.6685C91.2998 52.9264 91.2644 52.9816 91.2356 53.0177L91.226 53.0297C91.2023 53.0606 91.1833 53.1031 91.0715 53.1382C91.0404 53.1308 91.0091 53.123 90.9774 53.1147C90.574 53.009 90.2548 52.8636 89.9459 52.7126L89.6109 52.5477C89.2222 52.3573 88.8301 52.1739 88.4146 52.0385C87.5278 51.7495 86.6157 51.5459 85.6894 51.4372C85.4886 51.4137 85.2953 51.346 85.1428 51.23C84.998 51.1199 84.8874 50.9674 84.837 50.7648C84.7717 50.5025 84.7904 50.304 84.9313 50.0674C85.0372 49.8897 85.1888 49.7665 85.3628 49.6958C85.5402 49.6237 85.7421 49.6067 85.9429 49.6469Z" fill="black"/>
<path fill-rule="evenodd" clip-rule="evenodd" d="M94.0378 61.3146C92.595 62.804 90.1864 63.2314 88.2668 62.4326C83.3379 60.3753 85.7504 53.9584 89.5517 52.2352C90.0265 52.1169 90.6608 51.8364 91.2392 51.7727C91.2915 51.7471 91.4053 51.8213 91.5433 51.7511C95.7348 52.2187 96.6893 58.7189 94.0378 61.3146M78.1399 61.6958C76.5217 63.8401 73.5132 64.5016 71.0551 63.5048C66.1992 61.5943 67.9215 55.9041 71.2438 53.6733C78.2621 51.0388 81.1602 57.7423 78.1399 61.6958M67.6132 56.9448C67.6087 56.9427 67.6042 56.9416 67.5996 56.9395C67.6252 56.9282 67.6509 56.9169 67.6764 56.9054C67.6681 56.9271 67.6591 56.9486 67.651 56.9704C67.6384 56.9617 67.6274 56.9516 67.6132 56.9448M97.3786 54.627C96.9824 54.6279 96.4101 54.6929 96.0821 54.9675C95.2732 52.2425 92.2878 49.7205 89.6914 51.5595C87.6468 52.2164 86.1296 53.6732 85.2673 55.6101C83.7126 54.6862 81.2678 55.0807 79.9196 56.3024C79.0366 53.3877 76.8636 52.3671 74.2771 52.2164C71.4539 51.7545 68.6401 54.4935 67.7621 56.6908C67.0321 56.6078 65.9413 56.3757 65.2545 56.8258C60.7973 55.658 53.0045 55.0142 52.0983 55.663C51.4526 55.9105 51.0982 57.4333 52.0002 57.5154C52.7862 57.4039 51.9084 56.3997 52.7007 56.2901C56.9222 56.0287 61.0203 56.878 65.1971 57.2344C65.57 57.7355 66.7749 57.9032 67.4177 57.7018C66.4054 61.4292 68.5908 63.9651 71.8654 64.7247C76.9358 65.8882 81.3472 61.3569 80.0213 56.6436C81.5573 55.8803 83.3241 55.913 84.9973 56.3151C82.2013 66.5952 98.7741 66.134 96.1857 55.3198C97.9082 56.1758 98.2823 54.7998 97.3786 54.627" fill="black"/>
</svg>
